<?xml version="1.0" standalone="no"?><!DOCTYPE svg PUBLIC "-//W3C//DTD SVG 1.1//EN" "http://www.w3.org/Graphics/SVG/1.1/DTD/svg11.dtd"><svg t="1706683528416" class="icon" viewBox="0 0 2228 1024" version="1.1" xmlns="http://www.w3.org/2000/svg" p-id="5441" width="69.625" height="32" xmlns:xlink="http://www.w3.org/1999/xlink"><path d="M1974.328889 775.727407h-462.222222c-9.14963 0-16.592593-7.442963-16.592593-16.592592s7.442963-16.592593 16.592593-16.592593h462.222222c9.14963 0 16.592593 7.442963 16.592592 16.592593s-7.442963 16.592593-16.592592 16.592592zM1281.943704 775.727407H1119.762963c-9.14963 0-16.592593-7.442963-16.592593-16.592592s7.442963-16.592593 16.592593-16.592593h162.180741c9.14963 0 16.592593 7.442963 16.592592 16.592593s-7.442963 16.592593-16.592592 16.592592zM675.460741 775.727407H215.703704c-9.14963 0-16.592593-7.442963-16.592593-16.592592s7.442963-16.592593 16.592593-16.592593h459.757037c9.14963 0 16.592593 7.442963 16.592592 16.592593s-7.442963 16.592593-16.592592 16.592592zM1197.605926 386.56c0.900741-0.568889 1.232593-0.995556 1.232593-0.995556l-22.328889-24.557037c3.508148-3.176296 14.601481-10.666667 42.287407-11.851851a16.687407 16.687407 0 0 1 17.303704 15.881481 16.654222 16.654222 0 0 1-15.881482 17.303704c-16.782222 0.711111-22.565926 4.171852-22.613333 4.219259zM947.579259 469.76c-5.025185 0-9.955556-2.275556-13.226666-6.542222a16.625778 16.625778 0 0 1 3.176296-23.277037c22.091852-16.782222 35.365926-18.157037 40.106667-17.92l-1.46963 33.137778s0.521481 0.094815 1.564444 0c-0.094815 0-6.779259 1.042963-20.10074 11.188148-2.986667 2.275556-6.542222 3.365926-10.050371 3.365926zM1096.343704 596.005926c-19.911111 0-39.158519-4.124444-56.130371-12.183704-27.401481-13.037037-45.653333-34.797037-51.437037-61.202963-5.783704-26.405926 1.706667-53.807407 21.096297-77.131852 18.394074-22.139259 45.605926-38.068148 76.562963-44.847407 30.957037-6.779259 62.293333-3.697778 88.32 8.675556 27.401481 13.037037 45.653333 34.797037 51.437037 61.202963 5.783704 26.405926-1.706667 53.807407-21.096297 77.131851-18.394074 22.139259-45.605926 38.068148-76.562963 44.847408-10.761481 2.37037-21.57037 3.508148-32.189629 3.508148z m22.328889-165.736296c-8.248889 0-16.687407 0.900741-25.125926 2.749629-23.798519 5.214815-44.468148 17.161481-58.168889 33.65926-12.705185 15.265185-17.777778 32.616296-14.222222 48.782222s15.407407 29.819259 33.327407 38.352592c19.342222 9.244444 43.093333 11.425185 66.891852 6.210371s44.468148-17.161481 58.168889-33.65926c12.705185-15.265185 17.73037-32.616296 14.222222-48.782222s-15.407407-29.819259-33.327407-38.352592c-12.468148-5.973333-26.785185-9.007407-41.765926-9.007408z" fill="#1296db" p-id="5442"></path><path d="M1067.377778 504.082963m-16.592593 0a16.592593 16.592593 0 1 0 33.185185 0 16.592593 16.592593 0 1 0-33.185185 0Z" fill="#1296db" p-id="5443"></path><path d="M1149.534815 486.068148m-16.592593 0a16.592593 16.592593 0 1 0 33.185185 0 16.592593 16.592593 0 1 0-33.185185 0Z" fill="#1296db" p-id="5444"></path><path d="M1242.548148 603.401481a16.402963 16.402963 0 0 1-13.368889-6.779259c-82.488889-112.165926 9.244444-204.705185 10.145185-205.653333a16.592593 16.592593 0 0 1 23.324445 23.608889c-3.034074 3.034074-71.964444 73.718519-6.779259 162.37037a16.545185 16.545185 0 0 1-3.555556 23.182222c-2.939259 2.180741-6.4 3.223704-9.813333 3.223704zM1392.782222 863.762963c-67.934815 0-100.266667-23.466667-115.484444-43.899259-15.36-20.574815-19.247407-46.601481-10.714074-71.395556 6.684444-19.437037 20.242963-36.93037 34.56-55.466667 7.585185-9.813333 15.454815-20.005926 22.471111-30.767407 6.779259-10.334815 11.045926-20.48 13.416296-30.008889-3.65037 0.331852-7.49037-0.521481-10.856296-2.749629-1.706667-1.185185-42.382222-28.965926-43.377778-71.395556-0.616296-27.448889 14.980741-53.191111 46.459259-76.562963 38.779259-28.776296 92.586667-32.568889 140.468148-9.955556 46.411852 21.94963 76.657778 63.573333 78.933334 108.705186 2.844444 57.078519-7.111111 181.854815-65.185185 245.617777-21.57037 23.656296-47.454815 36.314074-77.037037 37.594075-4.693333 0.18963-9.244444 0.284444-13.653334 0.284444z m-43.709629-300.562963c6.21037 0 12.183704 3.508148 15.028148 9.528889 11.70963 24.841481 14.506667 66.180741-12.705185 107.662222-7.774815 11.851852-16.023704 22.518519-23.988149 32.853333-12.61037 16.355556-24.50963 31.762963-29.44 46.032593-4.977778 14.459259-2.891852 28.918519 5.925926 40.722963 9.339259 12.562963 34.986667 33.185185 101.12 30.293333 20.717037-0.900741 38.352593-9.671111 53.94963-26.785185 46.743704-51.294815 59.496296-163.176296 56.557037-221.629629-1.659259-32.853333-24.604444-63.668148-59.97037-80.355556-36.788148-17.398519-77.605926-14.838519-106.524445 6.58963-22.234074 16.497778-33.327407 32.995556-33.042963 49.019259 0.331852 16.782222 12.847407 31.004444 21.285926 38.684444-0.853333-3.271111-1.991111-6.257778-3.223704-8.96a16.630519 16.630519 0 0 1 7.964445-22.091852c2.275556-1.09037 4.693333-1.564444 7.063704-1.564444z" fill="#1296db" p-id="5445"></path><path d="M785.825185 615.585185c-6.779259 0-13.179259-4.219259-15.597037-10.998518-35.982222-100.124444 15.312593-219.06963 38.921482-265.33926-13.653333-6.162963-23.514074-17.114074-27.448889-31.288888-7.727407-27.97037 9.244444-60.444444 43.282963-82.725926 20.100741-13.179259 40.154074-17.540741 59.685926-12.942223 16.023704 3.745185 28.302222 12.98963 36.551111 21.333334 87.703704-74.145185 234.382222-99.887407 276.717037-105.955556 7.68-27.022222 20.195556-45.274074 37.973333-55.703704 20.717037-12.183704 47.407407-13.037037 81.588148-2.654814 28.586667 8.675556 38.494815 24.462222 41.813334 36.171851 4.314074 15.407407-0.521481 30.767407-6.494815 42.24 106.619259 43.425185 174.791111 104.533333 202.761481 181.854815 39.442963 109.037037-16.497778 208.592593-18.868148 212.764445a16.587852 16.587852 0 0 1-22.660741 6.115555 16.559407 16.559407 0 0 1-6.162963-22.613333c0.853333-1.517037 50.583704-91.259259 16.355556-185.362963-26.263704-72.154074-94.388148-129.137778-202.524444-169.291852-5.12-1.896296-9.007407-6.257778-10.334815-11.567407-1.327407-5.30963 0.094815-10.951111 3.745185-15.028148 5.072593-5.783704 14.838519-20.859259 12.183704-30.198519-1.943704-6.731852-11.662222-10.998519-19.437037-13.368889-24.841481-7.537778-42.903704-7.68-55.182223-0.474074-11.757037 6.921481-20.005926 21.807407-25.22074 45.605926a16.64 16.64 0 0 1-14.364445 12.942222c-1.896296 0.237037-192.758519 22.755556-282.121481 110.364445-3.65037 3.555556-8.675556 5.30963-13.795556 4.598518a16.621037 16.621037 0 0 1-12.136296-8.059259c-0.047407-0.094815-10.761481-17.540741-28.207408-21.522963-10.287407-2.322963-21.617778 0.521481-33.706666 8.438519-24.699259 16.165926-32.616296 34.797037-29.487408 46.127407 2.844444 10.24 14.411852 12.231111 21.048889 12.468148 5.831111 0.237037 11.140741 3.555556 13.937778 8.675556s2.654815 11.377778-0.331852 16.402963c-0.853333 1.46963-86.328889 146.915556-46.838518 256.711111a16.625778 16.625778 0 0 1-15.597037 22.234074z" fill="#1296db" p-id="5446"></path><path d="M832.474074 738.939259c-11.946667 0-23.608889-1.659259-34.417778-4.93037-26.453333-8.059259-45.226667-24.841481-52.859259-47.36-15.028148-44.373333 20.242963-96.568889 78.648889-116.385185 27.354074-9.291852 55.893333-10.287407 80.402963-2.844445 26.453333 8.059259 45.226667 24.841481 52.859259 47.36 7.632593 22.471111 2.986667 47.265185-13.131852 69.736297-14.885926 20.811852-38.162963 37.357037-65.517037 46.648888-15.265185 5.167407-30.862222 7.774815-45.985185 7.774815z m37.357037-143.312592c-11.425185 0-23.419259 2.038519-35.271111 6.02074-40.391111 13.700741-66.891852 47.739259-57.884444 74.287408 4.124444 12.088889 15.122963 21.428148 31.051851 26.263704 17.92 5.451852 39.253333 4.551111 60.065186-2.512593 20.859259-7.063704 38.305185-19.342222 49.208888-34.56 9.671111-13.558519 12.8-27.638519 8.675556-39.727407-4.124444-12.088889-15.122963-21.428148-31.051852-26.263704-7.727407-2.37037-16.118519-3.508148-24.794074-3.508148z" fill="#1296db" p-id="5447"></path><path d="M928.616296 886.186667c-40.438519 0-84.337778-9.054815-128.379259-32-0.237037-0.142222-0.521481-0.284444-0.758518-0.426667-1.611852-0.948148-33.943704-20.29037-55.608889-51.579259-46.317037 43.70963-62.435556 30.056296-68.124445 25.268148-1.232593-1.042963-2.322963-2.275556-3.176296-3.65037-1.991111-3.034074-17.872593-29.677037 0.663704-73.291852-27.543704-57.315556-18.346667-68.456296-13.842963-73.908148 23.04-27.97037 58.026667-8.059259 84.337777 11.282962 0.568889-0.711111 1.137778-1.46963 1.754074-2.228148a16.630519 16.630519 0 0 1 23.324445-2.607407 16.630519 16.630519 0 0 1 2.607407 23.324444c-6.305185 7.86963-9.386667 13.274074-9.386666 13.368889-2.37037 4.219259-6.494815 7.205926-11.235556 8.154074-4.740741 0.948148-9.671111-0.18963-13.463704-3.176296-31.004444-24.177778-43.946667-29.013333-49.398518-28.444444 1.991111 9.339259 9.718519 29.013333 18.488889 46.554074 2.322963 4.645926 2.322963 10.145185 0 14.791111-8.722963 17.635556-9.528889 30.625185-8.533334 38.731852 9.576296-6.115556 24.841481-19.294815 37.49926-32.805926 3.84-4.077037 9.434074-5.925926 14.933333-5.025185 5.499259 0.948148 10.145185 4.645926 12.373333 9.765925 13.653333 31.620741 49.493333 54.328889 53.285926 56.651852 93.155556 48.260741 184.794074 26.500741 234.998519-6.921481 29.819259-19.863704 48.071111-45.463704 46.411852-65.28-4.171852-49.92-85.191111-87.371852-113.256297-96.568889-13.985185-4.598519-27.828148-8.059259-41.102222-10.287407-9.054815-1.517037-15.122963-10.05037-13.605926-19.105186s10.05037-15.17037 19.105185-13.605926c14.933333 2.512593 30.388148 6.352593 45.937778 11.472593 44.657778 14.601481 130.56 59.638519 136.011852 125.345185 2.702222 32.663704-20.148148 68.408889-61.108148 95.668148-33.801481 22.471111-83.863704 40.485926-140.8 40.485926z" fill="#1296db" p-id="5448"></path><path d="M982.992593 827.922963c-3.934815 0-7.917037-1.659259-10.714074-4.835556-72.722963-83.152593-6.58963-143.928889-5.925926-144.545185 5.878519-5.262222 14.838519-4.740741 20.10074 1.137778 5.214815 5.831111 4.740741 14.791111-1.09037 20.005926-4.788148 4.361481-44.61037 44.136296 8.296296 104.628148 5.167407 5.925926 4.551111 14.885926-1.327407 20.053333-2.702222 2.37037-6.020741 3.508148-9.339259 3.508149zM1011.342222 751.834074a11.847111 11.847111 0 0 1-8.391111-20.242963l27.638519-27.638518c4.598519-4.645926 12.136296-4.645926 16.782222 0s4.645926 12.136296 0 16.782222l-27.638519 27.638518c-2.322963 2.322963-5.357037 3.460741-8.391111 3.460741z" fill="#1296db" p-id="5449"></path><path d="M1038.933333 751.834074c-3.034074 0-6.068148-1.137778-8.391111-3.460741l-27.638518-27.638518c-4.645926-4.645926-4.645926-12.136296 0-16.782222s12.136296-4.645926 16.782222 0l27.638518 27.638518a11.847111 11.847111 0 0 1-8.391111 20.242963zM945.872593 835.176296c-3.365926 0-7.442963-0.805926-11.994074-3.271111-18.820741-10.24-40.438519-49.066667-44.136297-62.008889-1.706667-6.020741-0.521481-12.278519 3.271111-17.161481 8.817778-11.472593 31.81037-13.368889 49.682963-12.98963 7.86963 0.18963 14.08 6.684444 13.890371 14.506667a14.236444 14.236444 0 0 1-14.222223 13.937778h-0.284444c-7.537778-0.094815-16.071111 0.474074-21.807407 1.517037 6.162963 12.420741 18.820741 31.525926 25.837037 36.456296 4.93037-2.275556 6.447407-5.688889 6.447407-5.688889 2.133333-7.585185 9.955556-11.994074 17.540741-9.860741 7.585185 2.133333 11.994074 9.955556 9.860741 17.540741-0.568889 1.991111-6.068148 19.531852-28.16 26.263704-1.611852 0.474074-3.602963 0.853333-5.925926 0.853333zM1314.228148 402.820741c-3.555556 0-7.063704-1.327407-9.813333-3.934815l-12.041482-11.52a14.179556 14.179556 0 0 1-0.426666-20.100741 14.179556 14.179556 0 0 1 20.10074-0.426666l12.041482 11.52c5.688889 5.451852 5.878519 14.411852 0.426667 20.10074-2.797037 2.939259-6.542222 4.408889-10.287408 4.408889zM1365.096296 397.084444c-3.555556 0-7.063704-1.327407-9.813333-3.934814l-12.041482-11.52a14.179556 14.179556 0 0 1-0.426666-20.100741 14.179556 14.179556 0 0 1 20.100741-0.426667l12.041481 11.52c5.688889 5.451852 5.878519 14.411852 0.426667 20.100741-2.797037 2.939259-6.542222 4.408889-10.287408 4.408889zM900.171852 534.044444c-1.611852 0-3.223704-0.284444-4.835556-0.853333a14.170074 14.170074 0 0 1-8.533333-18.204444l5.688889-15.691852a14.170074 14.170074 0 0 1 18.204444-8.533334c7.395556 2.654815 11.235556 10.808889 8.533334 18.204445l-5.688889 15.691852a14.208 14.208 0 0 1-13.368889 9.386666zM852.053333 551.49037c-1.611852 0-3.223704-0.284444-4.835555-0.853333a14.170074 14.170074 0 0 1-8.533334-18.204444l5.688889-15.691852a14.170074 14.170074 0 0 1 18.204445-8.533334c7.395556 2.654815 11.235556 10.808889 8.533333 18.204445l-5.688889 15.691852a14.208 14.208 0 0 1-13.368889 9.386666z" fill="#1296db" p-id="5450"></path></svg>