<?xml version="1.0" standalone="no"?><!DOCTYPE svg PUBLIC "-//W3C//DTD SVG 1.1//EN" "http://www.w3.org/Graphics/SVG/1.1/DTD/svg11.dtd"><svg t="1706683756800" class="icon" viewBox="0 0 1024 1024" version="1.1" xmlns="http://www.w3.org/2000/svg" p-id="12444" xmlns:xlink="http://www.w3.org/1999/xlink" width="32" height="32"><path d="M398.139 690.95H333.07v-65.068c0-8.992-7.276-16.269-16.269-16.269H251.74c-8.977 0-16.261 7.276-16.261 16.269v65.068h-65.068c-8.977 0-16.269 7.284-16.269 16.269v65.076c0 8.984 7.292 16.27 16.269 16.27h65.068v65.075c0 8.985 7.284 16.27 16.261 16.27h65.061c8.992 0 16.269-7.284 16.269-16.27v-65.075h65.068c8.984 0 16.261-7.285 16.261-16.27v-65.076c0-8.985-7.276-16.269-16.26-16.269z m-16.269 65.076h-65.068c-8.977 0-16.261 7.284-16.261 16.269v65.076h-32.53v-65.076c0-8.984-7.285-16.269-16.27-16.269h-65.06v-32.538h65.06c8.984 0 16.27-7.285 16.27-16.27V642.15h32.53v65.068c0 8.984 7.284 16.27 16.261 16.27h65.068v32.538z" fill="#1296db" p-id="12445"></path><path d="M998.353 710.039c-12.479-112.111-117.76-216.994-229.942-228.958a270.115 270.115 0 0 0-28.693-1.62h-178.92v-65.076h-32.53v-32.538c0-35.946-29.138-65.076-65.067-65.076H381.87c-17.961 0-32.53-14.569-32.53-32.538s14.569-32.538 32.53-32.538h260.256c35.931 0 65.061-29.138 65.061-65.076 0-35.938-29.13-65.076-65.061-65.076h-81.329c-17.969 0-32.53-14.569-32.53-32.538V23.928H495.73v65.076c0 35.938 29.138 65.076 65.067 65.076h81.329c17.961 0 32.53 14.569 32.53 32.538 0 17.969-14.569 32.538-32.53 32.538H381.87c-35.931 0-65.068 29.138-65.068 65.076 0 35.938 29.138 65.076 65.068 65.076h81.329c17.969 0 32.53 14.569 32.53 32.538v32.538h-32.53v65.076h-178.92c-9.596 0.016-19.192 0.556-28.725 1.62C143.315 493.124 38.107 598.007 25.659 710.118c-16.332 142.831 86.175 271.863 228.99 288.203a260.168 260.168 0 0 0 166.598-37.304 159.217 159.217 0 0 1 71.399-25.23 249.371 249.371 0 0 1 37.813-0.135 160.476 160.476 0 0 1 72.511 25.508c122.272 75.578 282.643 37.718 358.204-84.586a260.305 260.305 0 0 0 37.179-166.535zM495.729 446.923h32.537v32.538h-32.537v-32.538z m413.724 444.688c-73.536 82.274-195.49 99.926-289.339 41.889a191.922 191.922 0 0 0-87.327-30.307c-6.871-0.5-13.799-0.746-20.789-0.746-7.403 0-14.641 0.31-21.925 0.882a191.3 191.3 0 0 0-86.017 30.027C297.1 999.544 156.764 966.482 90.592 859.51a227.733 227.733 0 0 1-32.586-145.786c10.692-96.343 104.62-189.921 201.043-200.28a232.276 232.276 0 0 1 25.229-1.445h455.438c8.437 0 16.856 0.452 25.229 1.351 96.406 10.358 190.311 103.937 201.043 200.28a226.136 226.136 0 0 1-56.535 177.981z" fill="#1296db" p-id="12446"></path><path d="M739.717 577.075c-35.931 0-65.061 29.13-65.061 65.075 0 35.938 29.13 65.068 65.061 65.068 35.938 0 65.068-29.13 65.068-65.068 0-35.945-29.131-65.075-65.068-65.075z m0 97.606c-17.969 0-32.53-14.561-32.53-32.53 0-17.977 14.562-32.537 32.53-32.537s32.538 14.561 32.538 32.537c0 17.969-14.569 32.53-32.538 32.53zM739.717 772.295c-35.931 0-65.061 29.138-65.061 65.076 0 35.938 29.13 65.076 65.061 65.076 35.938 0 65.068-29.139 65.068-65.076 0-35.938-29.131-65.076-65.068-65.076z m0 97.614c-17.969 0-32.53-14.562-32.53-32.538 0-17.969 14.562-32.538 32.53-32.538s32.538 14.569 32.538 32.538c0 17.977-14.569 32.538-32.538 32.538zM625.857 674.681c-35.931 0-65.061 29.139-65.061 65.076 0 35.946 29.13 65.076 65.061 65.076 35.93 0 65.068-29.13 65.068-65.076 0.001-35.938-29.138-65.076-65.068-65.076z m0 97.614c-17.961 0-32.53-14.561-32.53-32.538 0-17.969 14.569-32.538 32.53-32.538 17.969 0 32.53 14.569 32.53 32.538 0.001 17.977-14.569 32.538-32.53 32.538zM853.584 674.681c-35.938 0-65.068 29.139-65.068 65.076 0 35.946 29.13 65.076 65.068 65.076 35.93 0 65.06-29.13 65.06-65.076 0-35.938-29.13-65.076-65.06-65.076z m0 97.614c-17.969 0-32.538-14.561-32.538-32.538 0-17.969 14.569-32.538 32.538-32.538s32.53 14.569 32.53 32.538c0 17.977-14.569 32.538-32.53 32.538z" fill="#1296db" p-id="12447"></path></svg>